<?xml version="1.0" encoding="iso-8859-1"?>
<!-- Generator: Adobe Illustrator 19.0.0, SVG Export Plug-In . SVG Version: 6.00 Build 0)  -->
<svg version="1.1" id="Layer_1" xmlns="http://www.w3.org/2000/svg" xmlns:xlink="http://www.w3.org/1999/xlink" x="0px" y="0px"
	 viewBox="0 0 295.996 295.996" style="enable-background:new 0 0 295.996 295.996;" xml:space="preserve">
<g>
	<path style="fill:#FFCE00;" d="M267.312,91.997c-0.07-0.301-0.15-0.599-0.223-0.898c-7.269-15.153-17.35-28.709-29.558-39.997
		c-22.391-13.376-48.766-20.666-76.771-19.644c-45.988,1.677-85.981,25.354-110.234,60.54h80.472h34h82L267.312,91.997
		L267.312,91.997z"/>
	<path style="fill:#FFCE00;" d="M270.996,123.998c0-5.413-0.325-10.749-0.924-16.001h-23.408v17.002
		c0,22.562-18.392,40.916-40.999,40.916c-22.609,0-41.001-18.43-41.001-41.083v-16.835h-34v17.002
		c0,22.562-18.392,40.916-40.999,40.916c-22.609,0-41.001-18.43-41.001-41.083v-16.835h-7.658
		c-10.427,20.499-15.948,43.853-15.051,68.466c0.413,11.304,2.17,22.239,5.087,32.673c6.303,12.01,14.397,22.938,23.934,32.42
		c21.892,14.189,47.99,22.44,76.023,22.44C208.316,263.996,270.996,201.316,270.996,123.998z M70.677,198.504l13.438-8.684
		c12.224,18.915,32.811,31.74,55.072,34.308c28.563,3.294,57.098-10.173,72.693-34.308l13.438,8.684
		c-16.984,26.283-46.649,42.113-77.604,42.113c-3.445,0-6.9-0.195-10.362-0.595C110.393,236.913,85.467,221.393,70.677,198.504z"/>
	<path style="fill:#FFB100;" d="M267.51,91.997c-0.142-0.299-0.278-0.602-0.421-0.898c0.072,0.3,0.152,0.598,0.223,0.898H267.51z"/>
	<path style="fill:#FFB100;" d="M273.794,107.997h-3.722c0.599,5.252,0.924,10.588,0.924,16.001
		c0,77.318-62.68,139.998-139.998,139.998c-28.032,0-54.131-8.251-76.023-22.44c23.88,23.744,56.766,38.44,93.023,38.44
		c72.784,0,131.998-59.214,131.998-131.998C279.996,134.059,277.817,120.62,273.794,107.997z"/>
	<path style="fill:#FFE454;" d="M41.006,107.997H22.202C18.179,120.62,16,134.059,16,147.998c0,22.05,5.442,42.849,15.042,61.138
		c-2.917-10.434-4.674-21.369-5.087-32.673C25.058,151.851,30.579,128.496,41.006,107.997z"/>
	<path style="fill:#FFE454;" d="M160.76,31.457c28.006-1.021,54.381,6.268,76.771,19.644C213.985,29.328,182.521,16,147.998,16
		C95.225,16,49.593,47.135,28.486,91.997h20.511h1.528C74.778,56.812,114.771,33.134,160.76,31.457z"/>
	<path d="M147.998,0C66.392,0,0,66.392,0,147.998s66.392,147.998,147.998,147.998s147.998-66.392,147.998-147.998
		S229.604,0,147.998,0z M147.998,279.996c-36.257,0-69.143-14.696-93.023-38.44c-9.536-9.482-17.631-20.41-23.934-32.42
		C21.442,190.847,16,170.048,16,147.998c0-13.939,2.179-27.378,6.202-40.001h18.804h7.658v16.835
		c0,22.653,18.392,41.083,41.001,41.083c22.607,0,40.999-18.354,40.999-40.916v-17.002h34v16.835
		c0,22.653,18.392,41.083,41.001,41.083c22.607,0,40.999-18.354,40.999-40.916v-17.002h23.408h3.722
		c4.023,12.623,6.202,26.062,6.202,40.001C279.996,220.782,220.782,279.996,147.998,279.996z M28.486,91.997
		C49.593,47.135,95.225,16,147.998,16c34.523,0,65.987,13.328,89.533,35.102c12.208,11.288,22.289,24.844,29.558,39.997
		c0.143,0.297,0.279,0.6,0.421,0.898h-0.198H28.486z"/>
	<path d="M147.715,240.617c30.954,0,60.619-15.83,77.604-42.113l-13.438-8.684c-15.596,24.135-44.131,37.602-72.693,34.308
		c-22.262-2.567-42.849-15.393-55.072-34.308l-13.438,8.684c14.79,22.889,39.716,38.409,66.676,41.519
		C140.814,240.422,144.27,240.617,147.715,240.617z"/>
</g>
<g>
</g>
<g>
</g>
<g>
</g>
<g>
</g>
<g>
</g>
<g>
</g>
<g>
</g>
<g>
</g>
<g>
</g>
<g>
</g>
<g>
</g>
<g>
</g>
<g>
</g>
<g>
</g>
<g>
</g>
</svg>
