<?xml version="1.0" encoding="iso-8859-1"?>
<!-- Generator: Adobe Illustrator 19.0.0, SVG Export Plug-In . SVG Version: 6.00 Build 0)  -->
<svg version="1.1" id="Layer_1" xmlns="http://www.w3.org/2000/svg" xmlns:xlink="http://www.w3.org/1999/xlink" x="0px" y="0px"
	 viewBox="0 0 295.996 295.996" style="enable-background:new 0 0 295.996 295.996;" xml:space="preserve">
<g>
	<path style="fill:#FFCE00;" d="M190.443,250.696c-16.128-2.153-28.779-15.991-28.779-32.699v-12h-94v-16h160v3v13v12
		c0,2.703-0.167,5.328-0.784,7.845c27.057-25.526,44.032-61.711,44.032-101.844c0-11.334-1.322-22.348-3.866-32.9
		c-7.269-15.152-17.329-28.708-29.537-39.996c-22.391-13.376-48.755-20.666-76.761-19.645
		C83.482,34.273,23.133,99.196,25.95,176.463c0.413,11.304,2.173,22.239,5.09,32.673c6.303,12.01,14.399,22.938,23.935,32.42
		c21.892,14.189,47.908,22.44,75.94,22.44C152.235,263.996,172.356,259.222,190.443,250.696z M168.604,100.76l11.313-11.315
		l18.072,18.071l18.072-18.071l11.313,11.315l-17.941,17.938l17.942,17.94l-11.314,11.314L197.99,129.88l-18.071,18.072
		l-11.314-11.314l17.941-17.94L168.604,100.76z M68.604,100.76l11.313-11.315l18.072,18.071l18.072-18.071l11.313,11.315
		l-17.941,17.938l17.942,17.94l-11.315,11.314L97.989,129.88l-18.071,18.072l-11.314-11.314l17.941-17.94L68.604,100.76z"/>
	<path style="fill:#FFB100;" d="M267.089,91.098c2.544,10.553,3.907,21.566,3.907,32.9c0,40.133-16.893,76.317-43.949,101.844
		c-3.53,14.421-16.557,25.155-32.05,25.155c-1.488,0-2.951-0.108-4.388-0.301c-18.087,8.525-38.29,13.3-59.611,13.3
		c-28.032,0-54.131-8.251-76.022-22.44c23.88,23.744,56.766,38.44,93.022,38.44c72.784,0,131.998-59.214,131.998-131.998
		C279.996,127.636,275.358,108.337,267.089,91.098z"/>
	<path style="fill:#FFE454;" d="M160.76,31.457c28.006-1.021,54.381,6.269,76.771,19.645C213.985,29.328,182.521,16,147.998,16
		C75.214,16,16,75.214,16,147.998c0,22.05,5.442,42.849,15.042,61.138c-2.917-10.434-4.674-21.369-5.087-32.673
		C23.139,99.196,83.492,34.273,160.76,31.457z"/>
	<path d="M147.998,0C66.392,0,0,66.392,0,147.998s66.392,147.998,147.998,147.998s147.998-66.392,147.998-147.998
		S229.604,0,147.998,0z M147.998,279.996c-36.257,0-69.143-14.696-93.022-38.44c-9.536-9.482-17.631-20.41-23.934-32.42
		C21.442,190.847,16,170.048,16,147.998C16,75.214,75.214,16,147.998,16c34.523,0,65.987,13.328,89.533,35.102
		c12.208,11.288,22.289,24.844,29.558,39.996c8.27,17.239,12.907,36.538,12.907,56.9
		C279.996,220.782,220.782,279.996,147.998,279.996z"/>
	<polygon points="79.917,147.953 97.988,129.881 116.06,147.953 127.374,136.639 109.433,118.698 127.373,100.76 116.061,89.445 
		97.988,107.517 79.916,89.445 68.604,100.76 86.544,118.698 68.603,136.639 	"/>
	<polygon points="179.917,147.953 197.988,129.881 216.06,147.953 227.374,136.639 209.433,118.698 227.373,100.76 216.061,89.445 
		197.988,107.517 179.916,89.445 168.604,100.76 186.544,118.698 168.603,136.639 	"/>
	<path style="fill:#E36600;" d="M194.664,234.997c9.374,0,17-7.626,17-17v-12h-34v12
		C177.664,227.371,185.29,234.997,194.664,234.997z"/>
	<path d="M227.664,205.997v-13v-3h-160v16h94v12c0,16.708,12.651,30.546,28.779,32.699c1.436,0.192,2.983,0.301,4.471,0.301
		c15.493,0,28.395-10.734,31.925-25.155c0.616-2.517,0.825-5.142,0.825-7.845L227.664,205.997L227.664,205.997z M177.664,205.997h34
		v12c0,9.374-7.626,17-17,17s-17-7.626-17-17V205.997z"/>
</g>
<g>
</g>
<g>
</g>
<g>
</g>
<g>
</g>
<g>
</g>
<g>
</g>
<g>
</g>
<g>
</g>
<g>
</g>
<g>
</g>
<g>
</g>
<g>
</g>
<g>
</g>
<g>
</g>
<g>
</g>
</svg>
