<?xml version="1.0" encoding="iso-8859-1"?>
<!-- Generator: Adobe Illustrator 19.0.0, SVG Export Plug-In . SVG Version: 6.00 Build 0)  -->
<svg version="1.1" id="Layer_1" xmlns="http://www.w3.org/2000/svg" xmlns:xlink="http://www.w3.org/1999/xlink" x="0px" y="0px"
	 viewBox="0 0 295.996 295.996" style="enable-background:new 0 0 295.996 295.996;" xml:space="preserve">
<g>
	<path style="fill:#FFCE00;" d="M270.996,123.998c0-4.112-0.194-8.179-0.542-12.201c-6.543,4.477-14.447,7.102-22.956,7.102
		c-22.475,0-40.76-18.285-40.76-40.76c0-9.106,5.449-20.398,16.613-34.454c-19.04-8.593-40.301-13.04-62.592-12.228
		C83.492,34.273,23.139,99.196,25.955,176.463c0.412,11.304,2.17,22.239,5.087,32.673c6.303,12.01,14.397,22.938,23.934,32.42
		c21.892,14.189,47.99,22.44,76.022,22.44C208.316,263.996,270.996,201.316,270.996,123.998z M198.584,100.4
		c17.423,0,31.597,13.597,31.597,31.597h-16c0-9-6.997-15.597-15.597-15.597s-15.597,6.597-15.597,15.597h-16
		C166.987,113.997,181.161,100.4,198.584,100.4z M97.41,100.4c17.423,0,31.597,13.597,31.597,31.597h-16
		c0-9-6.997-15.597-15.597-15.597s-15.597,6.597-15.597,15.597h-16C65.813,113.997,79.987,100.4,97.41,100.4z M65.715,164.997
		h164.564c0,45.443-36.839,82.283-82.281,82.283C102.554,247.28,65.715,210.441,65.715,164.997z"/>
	<path style="fill:#FFB100;" d="M274.108,108.974c-1.164,1.006-2.381,1.952-3.653,2.823c0.348,4.022,0.542,8.089,0.542,12.201
		c0,77.318-62.68,139.998-139.998,139.998c-28.032,0-54.131-8.251-76.022-22.44c23.88,23.744,56.767,38.44,93.022,38.44
		c72.784,0,131.998-59.214,131.998-131.998C279.996,134.419,277.933,121.313,274.108,108.974z"/>
	<path style="fill:#FFE454;" d="M160.76,31.457c22.291-0.813,43.552,3.635,62.592,12.228c0.517-0.65,1.03-1.3,1.571-1.962
		c0.159-0.195,0.318-0.384,0.478-0.577C203.64,25.339,176.891,16,147.998,16C75.214,16,16,75.214,16,147.998
		c0,22.05,5.442,42.849,15.042,61.138c-2.917-10.434-4.675-21.369-5.087-32.673C23.139,99.196,83.492,34.273,160.76,31.457z"/>
	<path d="M285.416,93.057c1.825-4.624,2.84-9.653,2.84-14.918c0-9.527-5.948-21.44-18.184-36.416
		c-8.415-10.3-16.722-18.2-17.07-18.531l-5.504-5.217l-5.503,5.216c-0.182,0.173-2.528,2.407-5.914,5.95
		C211.452,10.841,180.969,0,147.998,0C66.392,0,0,66.392,0,147.998s66.392,147.998,147.998,147.998s147.998-66.392,147.998-147.998
		C295.996,128.594,292.235,110.053,285.416,93.057z M147.998,279.996c-36.256,0-69.143-14.696-93.022-38.44
		c-9.536-9.482-17.631-20.41-23.934-32.42C21.442,190.847,16,170.048,16,147.998C16,75.214,75.214,16,147.998,16
		c28.893,0,55.642,9.339,77.402,25.146c-0.159,0.193-0.318,0.382-0.478,0.577c-0.541,0.662-1.055,1.312-1.571,1.962
		c-11.164,14.057-16.613,25.348-16.613,34.454c0,22.475,18.285,40.76,40.76,40.76c8.509,0,16.413-2.625,22.956-7.102
		c1.272-0.871,2.489-1.817,3.653-2.823c3.825,12.339,5.889,25.445,5.889,39.024C279.996,220.782,220.782,279.996,147.998,279.996z
		 M272.256,78.139c0,13.652-11.106,24.76-24.758,24.76s-24.76-11.107-24.76-24.76c0-8.673,13.101-25.674,24.763-37.847
		C259.16,52.453,272.256,69.445,272.256,78.139z"/>
	<path d="M97.41,116.4c8.6,0,15.597,6.597,15.597,15.597h16c0-18-14.174-31.597-31.597-31.597s-31.597,13.597-31.597,31.597h16
		C81.813,122.997,88.811,116.4,97.41,116.4z"/>
	<path d="M198.584,116.4c8.6,0,15.597,6.597,15.597,15.597h16c0-18-14.174-31.597-31.597-31.597s-31.597,13.597-31.597,31.597h16
		C182.987,122.997,189.984,116.4,198.584,116.4z"/>
	<path style="fill:#28E0FF;" d="M222.738,78.139c0,13.652,11.107,24.76,24.76,24.76c13.651,0,24.758-11.107,24.758-24.76
		c0-8.693-13.096-25.686-24.755-37.847C235.839,52.465,222.738,69.466,222.738,78.139z"/>
	<path style="fill:#FFFFFF;" d="M147.916,231.28c31.033,0,57.07-21.438,64.246-50.283h-0.165H83.667
		C90.843,209.843,116.881,231.28,147.916,231.28z"/>
	<path d="M230.279,164.997H65.715c0,45.443,36.839,82.283,82.283,82.283C193.441,247.28,230.279,210.441,230.279,164.997z
		 M211.997,180.997h0.165c-7.176,28.846-33.213,50.283-64.246,50.283c-31.035,0-57.073-21.438-64.249-50.283H211.997z"/>
</g>
<g>
</g>
<g>
</g>
<g>
</g>
<g>
</g>
<g>
</g>
<g>
</g>
<g>
</g>
<g>
</g>
<g>
</g>
<g>
</g>
<g>
</g>
<g>
</g>
<g>
</g>
<g>
</g>
<g>
</g>
</svg>
